<svg fill="none" height="190" viewBox="0 0 287 190" width="287" xmlns="http://www.w3.org/2000/svg"><path d="m94 104h90v60h-90z" fill="#5436da"/><path d="m184 164h120v70h-120z" fill="#ff5828" transform="matrix(0 -1 1 0 20 348)"/><path d="m64 44h120v60h-120z" fill="#21b5c2"/><path d="m24 104h70v60h-70z" fill="#cae5f2"/><g fill="#191927"><path d="m128.775 183h1.38v-9.345h3.15v-1.155h-7.68v1.155h3.15zm6.788-8.94c.48 0 .825-.33.825-.795s-.345-.795-.825-.795c-.495 0-.825.33-.825.795s.33.795.825.795zm-.675 8.94h1.335v-7.71h-1.335zm3.762 0h1.335v-4.545c0-1.455.855-2.175 2.025-2.175 1.2 0 1.8.825 1.8 2.04v4.68h1.335v-4.545c0-1.455.855-2.175 2.025-2.175 1.2 0 1.785.825 1.785 2.04v4.68h1.35v-4.875c0-1.83-1.095-3.015-2.76-3.015-1.305 0-2.22.555-2.745 1.41-.45-.87-1.29-1.41-2.4-1.41-1.29 0-2.115.57-2.475 1.41v-1.23h-1.275zm16.991.18c1.635 0 2.94-.99 3.195-2.385h-1.2c-.24.795-.9 1.38-1.995 1.38-1.515 0-2.145-1.02-2.145-2.25v-.255h5.415v-1.2c0-1.875-1.095-3.36-3.315-3.36-2.205 0-3.405 1.41-3.405 3.495v1.2c0 2.1 1.41 3.375 3.45 3.375zm-2.145-4.515v-.195c0-1.335.555-2.355 2.1-2.355 1.41 0 2.055.945 2.055 2.235v.315z"/><path d="m116.653 35.71c2.49 0 4.05-1.725 4.2-3.735h-1.305c-.18 1.38-1.095 2.595-2.91 2.595-2.055 0-3.015-1.44-3.015-3.405v-1.83c0-1.965.96-3.405 3.015-3.405 1.815 0 2.73 1.215 2.91 2.595h1.305c-.15-2.01-1.71-3.735-4.2-3.735-2.955 0-4.41 1.98-4.41 4.605v1.71c0 2.625 1.455 4.605 4.41 4.605zm8.823-.03c1.185 0 2.205-.555 2.55-1.08v.9h1.29v-5.07c0-1.59-1.185-2.82-3.105-2.82-1.545 0-2.655.795-3.06 2.115h1.245c.285-.63.87-1.05 1.785-1.05 1.14 0 1.785.75 1.785 1.725v1.335c-.405-.42-1.2-.885-2.34-.885-1.845 0-3.075.885-3.075 2.415 0 1.425 1.125 2.415 2.925 2.415zm.3-.87c-1.11 0-1.935-.57-1.935-1.545 0-.99.795-1.545 1.995-1.545 1.095 0 2.13.615 2.13 1.515 0 .915-1.05 1.575-2.19 1.575zm5.792 3.3h1.335v-3.675c.45.735 1.335 1.245 2.49 1.245 1.98 0 3.21-1.47 3.21-3.435v-1.2c0-1.92-1.155-3.435-3.225-3.435-1.245 0-2.19.645-2.535 1.32v-1.14h-1.275zm3.555-3.525c-1.2 0-2.22-.9-2.22-2.385v-1.02c0-1.41.795-2.475 2.205-2.475 1.5 0 2.145 1.08 2.145 2.4v1.08c0 1.35-.75 2.4-2.13 2.4zm8.019 1.095c1.185 0 2.205-.555 2.55-1.08v.9h1.29v-5.07c0-1.59-1.185-2.82-3.105-2.82-1.545 0-2.655.795-3.06 2.115h1.245c.285-.63.87-1.05 1.785-1.05 1.14 0 1.785.75 1.785 1.725v1.335c-.405-.42-1.2-.885-2.34-.885-1.845 0-3.075.885-3.075 2.415 0 1.425 1.125 2.415 2.925 2.415zm.3-.87c-1.11 0-1.935-.57-1.935-1.545 0-.99.795-1.545 1.995-1.545 1.095 0 2.13.615 2.13 1.515 0 .915-1.05 1.575-2.19 1.575zm8.897.87c1.965 0 3.255-1.275 3.345-2.925h-1.215c-.135.975-.75 1.86-2.115 1.86-1.485 0-2.175-.96-2.175-2.31v-1.305c0-1.365.69-2.325 2.175-2.325 1.365 0 1.98.885 2.115 1.86h1.215c-.09-1.65-1.38-2.925-3.345-2.925-2.19 0-3.48 1.455-3.48 3.405v1.26c0 1.95 1.29 3.405 3.48 3.405zm6.083-9.12c.48 0 .825-.33.825-.795s-.345-.795-.825-.795c-.495 0-.825.33-.825.795s.33.795.825.795zm-.675 8.94h1.335v-7.71h-1.335zm6.477 0h1.065v-1.095h-.78c-.795 0-1.05-.3-1.05-1.02v-4.5h1.89v-1.095h-1.89v-2.19h-1.35v2.19h-1.26v1.095h1.26v4.53c0 1.32.63 2.085 2.115 2.085zm4.063 2.61h1.32l.96-2.61 2.775-7.71h-1.32l-2.115 6.315-2.19-6.315h-1.32l2.82 7.71z"/><path d="m15 108.982v-1.305h-7.845l5.31-2.685v-1.29l-5.31-2.685h7.845v-1.3052h-10.5v1.2752l6.72 3.36-6.72 3.36v1.275zm.18-14.8344c0-1.635-.99-2.94-2.385-3.195v1.2c.795.24 1.38.9 1.38 1.995 0 1.515-1.02 2.145-2.25 2.145h-.255v-5.415h-1.2c-1.875 0-3.36 1.095-3.36 3.315 0 2.205 1.41 3.405 3.495 3.405h1.2c2.1 0 3.375-1.41 3.375-3.45zm-4.515 2.145h-.195c-1.335 0-2.355-.555-2.355-2.1 0-1.41.945-2.055 2.235-2.055h.315zm4.335-7.3903v-1.335h-4.545c-1.455 0-2.175-.855-2.175-2.025 0-1.2.825-1.8 2.04-1.8h4.68v-1.335h-4.545c-1.455 0-2.175-.855-2.175-2.025 0-1.2.825-1.785 2.04-1.785h4.68v-1.35h-4.875c-1.83 0-3.015 1.095-3.015 2.76 0 1.305.555 2.22 1.41 2.745-.87.45-1.41 1.29-1.41 2.4 0 1.29.57 2.115 1.41 2.475h-1.23v1.275zm.18-17.0361c0-2.205-1.5-3.48-3.42-3.48h-1.23c-1.905 0-3.42 1.275-3.42 3.48 0 2.22 1.515 3.495 3.42 3.495h1.23c1.92 0 3.42-1.275 3.42-3.495zm-1.065 0c0 1.44-.975 2.19-2.34 2.19h-1.26c-1.35 0-2.325-.75-2.325-2.19 0-1.425.975-2.175 2.325-2.175h1.26c1.365 0 2.34.75 2.34 2.175zm.885-5.4493v-1.335h-3.735c-1.845 0-2.745-.885-2.745-2.31v-.27h-1.275v.195c0 1.335.585 2.19 1.755 2.46h-1.71v1.26zm2.61-6.8218v-1.32l-2.61-.96-7.71-2.775v1.32l6.315 2.115-6.315 2.19v1.32l7.71-2.82z"/></g><path d="m27.002 12h-6l3-11.99999974z" fill="#8e8ea0"/><path d="m24.002 164.5v-75.0278-85.02776" stroke="#8e8ea0" stroke-miterlimit="16" stroke-width="1.5"/><path d="m275 167v-6l12 3z" fill="#8e8ea0"/><path d="m24 164h127.096 127.097" stroke="#8e8ea0" stroke-miterlimit="16" stroke-width="1.5"/></svg>